<?xml version="1.0" encoding="UTF-8"?>
<svg id="Layer_2" xmlns="http://www.w3.org/2000/svg" version="1.1" viewBox="0 0 645.97 1652.49">
  <!-- Generator: Adobe Illustrator 30.0.0, SVG Export Plug-In . SVG Version: 2.1.1 Build 123)  -->
  <defs>
    <style>
      .st0 {
        fill: #1a1a1a;
      }
    </style>
  </defs>
  <circle class="st0" cx="315.47" cy="163.07" r="134.59"/>
  <g>
    <circle class="st0" cx="450.06" cy="1496.93" r="134.59"/>
    <circle class="st0" cx="180.89" cy="1496.93" r="134.59"/>
  </g>
  <path class="st0" d="M584.65,593.45c0,148.43-120.31,268.74-268.71,268.74h-1.13s0-186.89,0-186.89H46.3c0-202.49,164.15-366.64,366.64-366.64h171.68s0,284.8,0,284.8h.03Z"/>
  <path class="st0" d="M585.88,862.21v229.73c0,149.35-121.06,270.41-270.41,270.41-149.32,0-270.41-121.06-270.41-270.41v-229.73c2.47,0,4.96-.03,7.43-.03.1,75.45,63.24,135.81,135.91,133.39,69.48-2.31,127.04-61.31,127.07-133.37h270.41Z"/>
</svg>